<svg xmlns="http://www.w3.org/2000/svg" viewBox="0 0 1200 760" role="img" aria-labelledby="title desc"><title id="title">Manufacturing Logistics Hero</title><desc id="desc">Automated manufacturing line and supply-chain handling</desc><defs><linearGradient id="bg" x1="0" y1="0" x2="1" y2="1"><stop stop-color="#07152b"/><stop offset=".58" stop-color="#0b2c50"/><stop offset="1" stop-color="#087fbd"/></linearGradient><linearGradient id="cyan" x1="0" y1="0" x2="1" y2="1"><stop stop-color="#55e7ff"/><stop offset="1" stop-color="#1688ff"/></linearGradient><linearGradient id="glass" x1="0" y1="0" x2="0" y2="1"><stop stop-color="#e9f8ff" stop-opacity=".30"/><stop offset="1" stop-color="#8bd9ff" stop-opacity=".06"/></linearGradient><pattern id="grid" width="44" height="44" patternUnits="userSpaceOnUse"><path d="M44 0H0V44" fill="none" stroke="#77cfff" stroke-opacity=".10"/></pattern><filter id="glow"><feGaussianBlur stdDeviation="8" result="b"/><feMerge><feMergeNode in="b"/><feMergeNode in="SourceGraphic"/></feMerge></filter></defs><rect width="1200" height="760" fill="url(#bg)"/><rect width="1200" height="760" fill="url(#grid)"/><circle cx="960" cy="140" r="250" fill="#00bfff" opacity=".09"/><path d="M0 630 Q270 540 520 640T1200 590V760H0Z" fill="#04101f" opacity=".72"/><path d="M140 560V350L280 270V350L420 270V350L560 270V560Z" fill="url(#glass)" stroke="#7be4ff" stroke-width="4"/><path d="M180 390H520M180 445H520M180 500H520" stroke="#74dfff" stroke-width="5" opacity=".65"/><g fill="#0b2c4c" stroke="#8ceaff" stroke-width="3"><rect x="680" y="300" width="110" height="250" rx="12"/><rect x="820" y="220" width="110" height="330" rx="12"/></g><g stroke="#32dfff" stroke-width="5"><path d="M735 330V490M875 260V490"/><path d="M700 380H770M700 430H770M840 320H910M840 390H910M840 460H910"/></g><path d="M100 600H1070" stroke="#63dfff" stroke-width="3" stroke-dasharray="14 16"/></svg>