<svg xmlns="http://www.w3.org/2000/svg" viewBox="0 0 1200 760" role="img" aria-labelledby="title desc"><title id="title">Road Transport Hero</title><desc id="desc">Long-haul freight truck travelling on a glowing route</desc><defs><linearGradient id="bg" x1="0" y1="0" x2="1" y2="1"><stop stop-color="#07152b"/><stop offset=".58" stop-color="#0b2c50"/><stop offset="1" stop-color="#087fbd"/></linearGradient><linearGradient id="cyan" x1="0" y1="0" x2="1" y2="1"><stop stop-color="#55e7ff"/><stop offset="1" stop-color="#1688ff"/></linearGradient><linearGradient id="glass" x1="0" y1="0" x2="0" y2="1"><stop stop-color="#e9f8ff" stop-opacity=".30"/><stop offset="1" stop-color="#8bd9ff" stop-opacity=".06"/></linearGradient><pattern id="grid" width="44" height="44" patternUnits="userSpaceOnUse"><path d="M44 0H0V44" fill="none" stroke="#77cfff" stroke-opacity=".10"/></pattern><filter id="glow"><feGaussianBlur stdDeviation="8" result="b"/><feMerge><feMergeNode in="b"/><feMergeNode in="SourceGraphic"/></feMerge></filter></defs><rect width="1200" height="760" fill="url(#bg)"/><rect width="1200" height="760" fill="url(#grid)"/><circle cx="960" cy="140" r="250" fill="#00bfff" opacity=".09"/><path d="M0 630 Q270 540 520 640T1200 590V760H0Z" fill="#04101f" opacity=".72"/><path d="M70 590H1130" stroke="#6bdcff" stroke-opacity=".55" stroke-width="3"/><path d="M100 620H1100" stroke="#fff" stroke-opacity=".4" stroke-width="4" stroke-dasharray="36 30"/><g transform="translate(180 310)"><rect x="20" y="80" width="500" height="200" rx="18" fill="url(#glass)" stroke="#8eeaff" stroke-width="3"/><path d="M50 115H470M50 145H470" stroke="#a8eaff" stroke-opacity=".3" stroke-width="5"/><path d="M520 150H650L740 220V280H520Z" fill="url(#cyan)" stroke="#b9f7ff" stroke-width="3"/><path d="M565 168H628L680 220H565Z" fill="#09223c"/><circle cx="145" cy="290" r="44" fill="#061326" stroke="#7eeaff" stroke-width="9"/><circle cx="145" cy="290" r="15" fill="#80eaff"/><circle cx="590" cy="290" r="44" fill="#061326" stroke="#7eeaff" stroke-width="9"/><circle cx="590" cy="290" r="15" fill="#80eaff"/><path d="M0 335H770" stroke="#35d9ff" stroke-width="3" stroke-dasharray="10 14" opacity=".6"/></g><g fill="#a7ecff" opacity=".7"><circle cx="230" cy="180" r="5"/><circle cx="920" cy="300" r="6"/><circle cx="1040" cy="420" r="4"/></g></svg>